<svg xmlns="http://www.w3.org/2000/svg" version="1.1" viewBox="0 0 1378 474.5" width="1378" height="474.5"><!-- svg-source:excalidraw --><metadata><!-- payload-type:application/vnd.excalidraw+json --><!-- payload-version:2 --><!-- payload-start -->eyJ2ZXJzaW9uIjoiMSIsImVuY29kaW5nIjoiYnN0cmluZyIsImNvbXByZXNzZWQiOnRydWUsImVuY29kZWQiOiJ4nO1d25bbxrF991dgjVx1MDAxZi2N+37xmyyNLSWS40j2yeWsPIAkMERcdTAwMDRcdTAwMTJcZoHReJzl78p7vuw0OENcdTAwMDJcdTAwMDRcdTAwMWHo7jnkqJG0tZYlNlxuJC61u6p2V1f984souqjuNsnFN9FF8ss8zrPFNr69eFaPf0q2ZVas1SG0+1xcXHUwMDE2N9v5TnJZVZvym6+/zlx1MDAwYnXGsiir+1x1MDAxM5I8WSXrqlRcIv+rPkfRP3f/V0eyRX1alfxSPYc72d3o/ofr8Wb0XHUwMDE3NUTA4eNd/fvs8PE2W1RLNVx1MDAwNKG4XHUwMDE0h9Flkl0vq1pcdTAwMTJd0sNovL7O61x1MDAxZmi+rKy2xcfkZZFcdTAwMTfb+oe/XHUwMDA0KYzRrPntWTz/eL0tbtaLg0y1jdflJt6qXHUwMDFia+TSLM8/VHe7b1fPRT21i85v/Gl/nZ3xobPUj14v10lZXHUwMDFlnVNs4nlW1Y9cdTAwMDCC5i7qK9y8Weye89+aa9rGq+RN/aDXN3ne/uL14uGLj1x1MDAwZZRJUlx1MDAwYkOMXHUwMDA1J4jh5ml2Xnx77IdivVNcdTAwMDFcYqVAXHUwMDE4ktabycpXSlx1MDAwMardl6ZxXibNU60v4aqlXHUwMDFjzUXfbFx1MDAxNvH9KZBcdTAwMGJcdTAwMGVcdTAwMDBkSGKMXHUwMDBmx/Ns/bF74UrrPmp+ZadF6sHC6N//in5aJlFeXHUwMDE0m+ZcdTAwMDFcdTAwMTfb7Dpbx/lP42Jpsa4+ZL/u7lFcdTAwMWONflx1MDAxN6+y/O7oodQ/+Vwiz67rR3WRJ2lLQ9TzqjKFjsPhqv0rc/V9cbZOtv33pe44eb1XZ3iJWup8U1x1MDAxNe+T8v7iqu1Nc+vZepHUsLmIwcVu7Ldng/hDj8BcdTAwMWZtbnmPP4HJpezjXHUwMDBm4kvuXHUwMDAyQDpjM4H+u1x1MDAwMVxiXHUwMDE4R4hjwJ1cdTAwMDDIKFx1MDAwMlx1MDAxY1x01kj4XHUwMDAywFx1MDAxZopFUkbqhUW1xq7qr49us2pcdTAwMTm9ffuujG6XWZ5EyeJayWyTlUJBtLxZxevL6Erd4l20VmdHeVx1MDAxMn+qvyMq1d+bXCJbV9EsWSo1/yaK19G7V1FabKOXeXyzSJ7VI7FcdTAwMDJbXHUwMDFhz6vd+J2yU1GVxKvLYfT7eI3tqVx1MDAwN1x1MDAxZY1OYuqBY1PPNplXu9ngOe7PP4eDo5NcdTAwMTBsfT54XHUwMDAxvFx1MDAxOWvmoJageVx1MDAwNkJzkspkdFx1MDAwNvoyiVOQLiY/++zfSfPo8cPIb71JSXLKhYBcdTAwMDS31co0KVx1MDAxMYBcdTAwMDXFXHUwMDEw+TMnNeqJjJaR2FjGlincvVx1MDAxN9pXSoK0lpFcdTAwMWRcdTAwMDEquKZmy0gpXHUwMDEwhFHOXFx0XHUwMDEwMkEkl5D555m+j1ez9iTXNUrd422DgI9GJ2FcdTAwMTCwXHUwMDExcfQxiOPkstHCPeakzlx1MDAwZbjFgsFcdTAwMTWNJEOEIyqIXHUwMDEz4Fx1MDAwNMZcZnOGm7N8XHUwMDAx3KdcIpsr54s+hyBaZeth5FxyXG62IVxijkZcdTAwMGZcdTAwMTDERz/rXHUwMDE3XHUwMDA0iVx1MDAxMYLsMVx1MDAxMJRAXHUwMDAzQVx1MDAxNiB4XHUwMDAyXGIyXHUwMDA2XHUwMDAxXHUwMDEy3ClcdTAwMTZcdTAwMTSYQUmUqfRcdTAwMGWA60JFUVmVra+HsaeTmTjsqFx1MDAxMXb8XHUwMDExsEOA6Sxf89ZcdTAwMDPsXHUwMDFlT8IwSDhF0FxyeFxigNpiQuBcdTAwMWby5ts4raJ/3CRlpS64fDaMv2HJiaOQXHUwMDE5UShcdTAwMWWDQoR0xi+g8Fx1MDAxNMaPM1wiJYVOS1x1MDAxMVxmQ8Jw+yRfMLguqki9sFt1vWPmTyM0ceRxOypQWlOBqLU6XHUwMDE1uMCn5lx1MDAwMilQ3qWQwIlcdTAwMGJE6tFcdTAwMDNcdTAwMDZcdTAwMTU4vcFlo6DCaFx1MDAxYSCwsVxyiHY4alxyXHUwMDFkSPkl0ihmoFx1MDAwM519NEiUw6W+XHUwMDFluOghJlxmXHTCgT+c9IFcdTAwMGVMyiTezpcjhGBPYuKUoDTjzio/pIc7LSlcdTAwMTicslPAXHUwMDBlXHUwMDEzXGYhXHUwMDEy0HF5mmCmkEI99MqS26hUt1vfwbBXplx1MDAxM5q4V/bCXGY+q+SQXHUwMDFl+LR0IFx1MDAwNDqrXHUwMDE30OecXHUwMDFkooyX4Ji6OV+SIFwioIfo2ybxXCKqlkk0L1x1MDAxNsksLkeWw0ZEJ47Eb81I1KRJmJGoZ1xiW8s5XHUwMDAxiI9cdTAwMDdcIoFIgVxuOC6OSSpcdTAwMDWTXHUwMDFlUvO3y7iKsrJcdTAwMDbYNlx1MDAxOaFcdTAwMDeH5CZcdTAwMGXBl2ZcYlrlg/QgXHUwMDE46MEzXHUwMDA2gFRKRqlw4lx1MDAwN1x1MDAwNVx1MDAwMlx1MDAwNFx1MDAwMOlhpvJcdTAwMWVa66Iy4+9IaOLgezVcdTAwMDa++qufQ01qSLzdXHUwMDE2t1x1MDAxZPS12KVcdTAwMWT6oIZcdTAwMTfUbFx1MDAxM3AhXHUwMDA1XHUwMDAz8JRcdTAwMTUjRDKImWxrjtn2caJAXCI8Qt4uTbfZn1L/1/wrapRg9+Hw778900o3itVcdTAwMTH/onPaRVx1MDAxZZfVy2K1yip1XHUwMDFmP9bX0HvQVbytvlVcYqmXwTvHkvVi4MjurFx1MDAxNzUslspX1pzXPtbFT1x1MDAwM8crO7pcdTAwMWVqckWGUndx885cdTAwMDNf/9R8PYSCc4G5XHUwMDFiWlXMyKB6cf6gtdHQ78zemlVGXHUwMDA1IZ11JFxyX4/Epc5bXHUwMDBifL271WDq3XNJnPSQUipcdTAwMDHBwlx1MDAxZjXcu2s/5vFcYmN4fHTiPP33ZrxZ5U708Fx1MDAxNnj6MzKFiGEoXHUwMDAx7EFrfNqniGA/k1x1MDAwN/9bifrXZvRpUics0Kcn6mHgXHUwMDA3T8JcdTAwMGZcbuW8tlx1MDAxZF+bxWmEuES85Vx0+1x1MDAwMr7NMlawir7ake9Rrc8jOUyjwlx1MDAxM1x1MDAwN+NcdTAwMWLzjmqrVJEuXHUwMDE49VxcfVx1MDAwMOOJXFxPoXxPJKVbUVx1MDAwM4qpxIRg/+CInuMoVfdWv8toXHUwMDEzl+VcdTAwMThcdTAwMWNHhSdcdTAwMGXH31x1MDAxOalDpMkg0VCHXHUwMDA0dvJ6XHUwMDAzdfgwelIkXG7OXHUwMDA0w1xm07biXHUwMDE4gYhcdTAwMTklgEnuz/p1YFx1MDAwZXXM4e/tmEOkyStcdTAwMTlgXHUwMDBl29tcYlx1MDAwM3P41MwhZ1x1MDAwMHKuwkgntEIsqSTIIy+20dC3ZvfNKtWCkVx1MDAwZaNcdTAwMWQ2/p/RfVx1MDAxM4hThFxid7NcdTAwMWG0XqJSpsNcdTAwMWY93LtvXHUwMDFm8mw+5rF1j0+cPnxnXHUwMDA2nVVyRVx1MDAwZnSBPjxcdTAwMWbmKMGYc1xmnEImolx1MDAwMi0s1OTvXHUwMDFk5OY31S55cJONpFx1MDAxOGqFJlx1MDAxZSH9YFx1MDAwNp9V3Y1cdTAwMWX4tOxhKLxxmu3HXHUwMDE0XCJcdTAwMTUpSaelMlx1MDAwMTAjiEh/oqRD4Y1cdTAwMDfVf1x1MDAxNq1cdTAwMTP172FcdTAwMDBcdTAwMGVcbk5cdTAwMWOEfzCD0KryRlx1MDAxN4R61jCU3jhcdFxiXHUwMDExrTctQienk1xiRFx1MDAwMCZcdTAwMWUuVy9cdTAwMTXWfq31O1x1MDAxZoafTmbiyPvRTFx1MDAxMGpSRTRcdTAwMDQha919IFxiz0dcdTAwMTBcIlxuoEKRXHUwMDEz6lx1MDAxNDZcYufEI7cz8IM6fvCPlvygJplkgFx1MDAxZlx1MDAxNLhTi+o8/CAkbEbmXHUwMDA2flCmPIWTXHUwMDA3pVNVUKBmQSHcMrogXHUwMDE2XFyBi3iUYtJo6Huzo2aVayFIh7fW8IOMXFzqVndcdTAwMDM/6Goz1OwvMFx1MDAwNcxxUYlcdTAwMGIkXHUwMDAw8ZBcdTAwMWV8s9rc/9Swp6ZcdTAwMTGZOEn4wYg8bJVY0UNeKFx1MDAxMHq+XHUwMDAyoZRcdIKVvjtcdTAwMDFPYlx1MDAwNFx1MDAwNZPQP+B9fV3EeWRcdTAwMDG/QcGJR0s/mUFoVZCjXHUwMDA3woGaXHUwMDAwmngpoNBcdTAwMTWFyjklXHUwMDEySuJWXGJcdTAwMDdcIoxcdTAwMTRmsEfV2fcwLOvlr1xiRkVcdTAwMWFt8nh9uVpcZiNxTHbiYPzZXGZGq1x1MDAwMlx1MDAxZF0whsKh52TukeRcYkPmlDKBJUWQQlx1MDAwZpn767yYKUv38u2Ln19djVx1MDAwMnFYcuIw/Fx1MDAxZiODiDUpI1x1MDAxYVx1MDAwNlGATspvYFx1MDAxMFx1MDAxZkZPvHLNsVx1MDAwMlObXHK0XG5cdTAwMDcxpZxcdTAwMTPuT33CwCHqOMQ/WfZcdTAwMTXSZJRcZnCIXHUwMDEw4GNq/0wkoqyzWNNxXHUwMDEyMZ2lMCGTx6VcdTAwMDOJiKRcdTAwMDSMXHUwMDEx7oRWWqd1+bRJrdHPP5u9Nqt8XHUwMDBiXGJIh9pcdTAwMGUphueMoVxiopi3d+VYXHUwMDE1fGdcYkov216+Tz5lye2wu9Y9PnH28C9m1FklWPRRp6VcdTAwMGZ5IC5OktdLmVx1MDAwNFx1MDAxNCC39SOOXHUwMDExXHUwMDE3wsdcdTAwMTK+h1x1MDAxMoWLLE2HsTcgNvE46a9mXGJaXHUwMDE15ehDUEtcdTAwMWVcdTAwMDZcYp6Ewed1vi5wy/KFdU9cIvVH+sfgf1SvZlx1MDAwN60yXHUwMDFm6/Y8IDZxXHUwMDA0xmZcdTAwMDRalenoIXAgzTAwhqdh71x1MDAxMeWMXHUwMDBip9VrRlx1MDAxMcJcZnvY5eRcbl1FX0WfskVSXGbjTys0cfTNzDyhJnVEw1x1MDAxMypV62T5XHUwMDA2ovBh9LSphlhwRqlb1ohU1lx1MDAxMjGfkuxcdTAwMDNNqKNcdOd2NCHR5JRcZtGEXGI9SdehkGtcdTAwMThpaEJcdTAwMGUlkUi67YghXHUwMDE0MqZMpT/0TKOgXHUwMDBic1x1MDAwM3KrVFx1MDAwYohIh73W8ISYXurCpcBcdTAwMTM6e2tAylql3HhCqGZcdTAwMDAhXHUwMDEw8DDX8MNSvaxhR61zeOIsYWLGnFVGRVx1MDAxZnNaljB0WjjRZkiBOKCO6b2EMM5Yu1OgL5B79z5aJOV8m22q0VqGQ3JcdTAwMTOPk1IzXGKtSnD0QajlXHRbVEZcdTAwMDDho0FIkCSEY+nU9YtcdFwiXGKkXHUwMDFlQnB2XHUwMDE3LeP1SDZTT2DioLs2g86qXHUwMDA0R1x1MDAwZnShx9A5M5kghlx1MDAxMFx1MDAxM8dcdTAwMTK+9e4qwSH2J5OpXbZQva/4elx1MDAxYm+WhoqFOrmJg3BpZFxiiV2fXHUwMDEziEBodPI0q2OIXHQgXHUwMDFkKUJCIEHYI7NcdTAwMTcoQlx1MDAxZEWYmeGoyVx1MDAxOalcdTAwMGZ00djox1x1MDAwZYyt6lx1MDAwZnswaljBXHUwMDE2m2hcdTAwMDajoJLGn4d6WcTlMvFcdTAwMDKNXHUwMDAyS0yEdEqtZ1RiLuV/Kl9/JI2E72A8OtYg8e+WZL0mf2So49Cxl4qRJVVPXHUwMDFiu2pcdTAwMDblnC1QMm4hv0zSXHUwMDE0p3Ly1tGBqceiTqVcdTAwMDfYjSFcdTAwMDWcccx82o3dqOdHc/BklVdBj7MqMO4rJVx1MDAxN5e8r5VcdTAwMTBf8kDUu8VOmEjJlVq5+W6cUIkkoP7FTuoxzNRcdTAwMWP457/8dXRcdTAwMWLWgFg7coJHo5Mg7nMzXHUwMDAyrcpydFx1MDAxMUhBXHUwMDBiblx1MDAwN8ZQ3/FcdTAwMGK6LZaF8ClSQVx1MDAxMFHWQDj1QIFCYiAw9XFfcvwp2Xlvw/DTiLSgJ49cdTAwMDYnwVmsjEFcdTAwMTLVpFD0gySMmrtcZkHSXHUwMDE5k5pcdTAwMDBQXlx1MDAxNFx1MDAwMY61cCCgQLlg/iRKhChp/1wiXHUwMDBlUFxc20VJVJM2Mlx1MDAxMCW1V0dDmPTkzVx1MDAxNVxiYlx1MDAwMEIn68gpY9TTMKkwOmnUKrtcdTAwMDLRTvCuiZMk0CY0hTjJ1V4oeCNEMVx1MDAxNU4ru5CpP8gne9FswSqTeDtfmlx1MDAwM6UhwYmHSlx1MDAxYjNcbq3SK3oo1MZK+lx1MDAxMk4hVHKGIUREXHUwMDAw0qrUY9XhhEhcdTAwMDSFj2mFhzgo+ipSnk+WxnObqEkrPe1cdTAwMDDqXHUwMDFm5lx1MDAwMEqTedFcdTAwMGagKGpcdTAwMTQyXHUwMDA0UGckLYjkdVx1MDAwN2SnVaa62SvkyKOCXHUwMDE0IX7av4hcdTAwMDNcdTAwMTK3lvGTJlx1MDAwN2NolVx0XHUwMDFmb9RcbvHT/ehTxE9cdTAwMTRcdTAwMDHBJGVOtUcph1x1MDAxOKlcYsqf1eBGPUuz42ZVwqLbWVhcdTAwMTc+MaaluEP45Oy3YS4xXHUwMDAxXHUwMDAyOEXxXHUwMDE0XHUwMDExdUU+VrCoa2hcdTAwMWFDJ63QxMOmyow+q+pcdTAwMTU99IWw6ax7Q1x1MDAxOMKcQ+qWbEBcdTAwMDFnXHUwMDEwXHRcdTAwMGbxXHUwMDE34qY9IG/McZMm6aJcdTAwMWY3cdjcfIibztkuXHUwMDBi4lx1MDAxYVTcicKgyj2G0qMyXHUwMDE2IW7av4hcdTAwMDNcdTAwMTI/WcZNmlxmXGbLrt4hbrpcdTAwMWZ9knUnJlxi4Vx1MDAwNFKnnfRcdTAwMThxJIhPXHUwMDE2s9HPW6Prxqw6h3SbK2pcdTAwMDMn0NrEXHUwMDE0XHUwMDAyp/+HueCEcS6IdGO8leZKhpiH+Xn3jVxi8qxcdTAwMWPz1zQyXHUwMDEzj5t+MYPPqoxFXHUwMDBmfNq4qcXKhrDp8eBcdTAwMTNcdTAwMTIxKYBb31x1MDAxZaSwXG6oT01cdTAwMTb30MvWZbZI7jt35/HIjvpBwWmHSnfGUIlpXHUwMDEyL/qhkoRccuJCqHQ++DEkXHUwMDEwXHUwMDAy1M30Ico4XHUwMDAzQPpj+UKotH9cdTAwMTFcdTAwMDck/mpcdTAwMTcqMU1cdTAwMDaGZYPTXHUwMDEwKt2PPkWoxKSsXHUwMDFiREKn1CiJXHUwMDA1ZkR4lFx1MDAxYXVQz1x1MDAxOVx1MDAwMGZvzapcZkS3pZQuVFwiQtveNIRKruZcdTAwMDIzXHUwMDAwOcSOu9CBoJhg0JpcdTAwMWE+t1x1MDAxZe7dtdr9mlx1MDAxN4uRqmN9iWlHSTNcdTAwMDDNwLPqXG7SXHUwMDAzXlheOiPylIuGRCu7zobQXHUwMDE2XHUwMDA0UYqZf1FSuYrzPIqrYpXNXHUwMDE1umpcdTAwMDdqpFx1MDAwNMu49KTjpVx1MDAxOUDmgMmu8lx1MDAwM4Sh9MNT7eZVnq903EmIKYaYeuSKhZBp/1wiXHUwMDFhMGLLmMm++EOvoVtcYpruR59cImhcIlxmSzVlQaf8WahcdTAwMWNVJLlH5EZLQYnZd3tcXFuNUFx1MDAwMOKs+VxiXHUwMDEyIYQlcFNESIFEynD4XHUwMDE3NiV1u1xmdZWXy2qVXHUwMDBmO25cdTAwMDNiU1x1MDAwZqCoXHUwMDE5hFZcdTAwMTUg+iDURlCSX+rqxoZcdTAwMTDKXHUwMDE5hoJcIkwpdYQhYIBcdTAwMDBcdDzsMLVrWlx1MDAxM31cdTAwMTVVSVlFVTzLR3iMMdmJh1DMXHUwMDE4QnGrulx1MDAxMFx1MDAxMMNQXHUwMDE44klcdTAwMTadiFx1MDAxNFx1MDAwMGNHv4xjQlx1MDAxNGCgPzhcZiHU/kU0YOR2IVx1MDAxNLevXGbRa3ZcdTAwMTNCqPvRJ+l1Q4EymshcdTAwMTGqXHUwMDAwI6HMpvCHeWxpqDC6b/xxnTd0MZQgIYY6jfNGXHUwMDE445Jy6ESBc1wiiaTSo1xc0XN03phiXHUwMDEwJc0ofFxc61xyfVx1MDAxMMVpKKR3XHUwMDFh341cdTAwMGKJXHUwMDE5dKvRgqhU6KXCXHUwMDFm9ntcdTAwMGbD223tRa2j2V10V9xcZsNwSG7iodNcdTAwMGIzXG6tkjA6XHUwMDE4JK2eXHUwMDAwXHUwMDA3S4i06epunTg+Y/TkXHUwMDBiXHUwMDAwoVCWXHUwMDEwckh6aFx1MDAxYnXJmJSEXHUwMDEzwP3Z3rSH4E+vr6LXP7978UN09er7q1x1MDAwZsNcdTAwMThcdTAwMWNcdTAwMTS06MXhtS381oxCq4yMLlxuW3VLXHUwMDFiMlFqXHJhaL/oikOEJCRcdTAwMDC6XHUwMDE1Z4FcdTAwMDRzwaiPfaiUWYvuKzZH0b//XHUwMDE1RbvPKtbfpajvd/Q2h+73+sbV7vDttlhfRzVcbspGYn5TPfS1z+bt8W3yKUtud4dcdTAwMTZZmjZcdTAwMDdqXHUwMDFie59cdTAwMTH/7v3wLODrdU67XHUwMDFm5VxmvDSzqJpEXHUwMDE0XUegLo1cbnF/XHUwMDFlgm1cdTAwMGayYVJdXGJcdTAwMWI0J6lMPstcdTAwMWPkXHUwMDBmk1xuqZpNXHUwMDAwcvJcdTAwMDXqXHUwMDEyi0LNRP7MQecjUp8jYpJ/3tbFx54z3d5DM/DK7H5Y1Vx1MDAxYqHs2P9cdTAwMTD9IFx1MDAwMNF2c9pH82GfXHUwMDEx+r64XHUwMDFmXGYwySB2K/ZcdTAwMDOBRFjB3yPo792Ptfr73lx1MDAwND+LSvVEovpn4zxaXHUwMDE1iyR/XHUwMDE2rW7mS3VmWSXbYdfgMd8xdVx1MDAxZe1qXGa8SZ5nm1JZbk1S0MOxTlx1MDAwNHFcXNiRcFxyo92Hr8v6p1x1MDAwNXS/TOJcdTAwMTSki8nD1qVcdTAwMTJcdTAwMDKqXHUwMDEzhJBw299cdTAwMDNcdTAwMDVWyMPEoy3oLc38zmxW7Fx1MDAxYaVcdTAwMWPvxiZM9HRcdTAwMTJCelx1MDAwMnIpsLvq/ctd0qTbKlx1MDAwYlwijHCGkH/0brVU5yjX6Vm0LnbbeKK7ZKQogkF86jzT9za2QmhyZbS2XHUwMDAyyja8zmQuIGEzMjeYXHUwMDBimfJcdTAwMTROXHUwMDFljy7mQj1pXHUwMDAyXHUwMDE4xU4wpZJcdTAwMTBJsUcwbenma6O1XHUwMDEwVsU7XHUwMDEw4F2t1Fx1MDAxOFxmrluUXHUwMDBm1sLVWlx1MDAwMCRcdTAwMTFcdTAwMDPSseKoXHUwMDE0XHUwMDEyQ1x1MDAwZntq7Sb8eL3Y7TFcdTAwMWLZjzYkN3Xz8MbKPGhyY7TmXHUwMDAxXHUwMDAzen7zIFx1MDAxOSUgXHUwMDFkN1x1MDAwZukshVx0mTxcdTAwMDBcdTAwMWTMg+RUXHUwMDA1XHUwMDA10K36oeBcdTAwMTJA4Wco8TuzcbBKXHUwMDE2wVxiWFx1MDAxOFx1MDAwN1xiSIgmTtTQR1x1MDAwMmUhsNtSNWfK66v73XujiodskWWyTXZrQFx1MDAxZtVbisq8PTH3UkbGhKduK35vZSs0uSN62qlTce1cZpZcIqT3RrpAQipkiKOYwKbFXGKWXHUwMDE4IerRjpiWZr4121xuu2RcbtbhQjWWQuJgKE7Tckq5cVx1MDAxMLj1XHUwMDFmhFhypThcdTAwMWVpYb9yerGOXHUwMDE2Wflx2EiMiE7dRLx7XHUwMDAw4lx1MDAxN1x1MDAwZmuhXHUwMDE38WbzoVLP+jBFKSXKXHUwMDE2XHUwMDBmt7jf03E/ViWb2idtXHK9U0HX1bret9Z57lx1MDAxN3WWxrc6v5+lXCKd11x1MDAxN7GbXHUwMDBiarwku+nxty9++z9RuFx1MDAxObsifQ==<!-- payload-end --></metadata><defs><style class="style-fonts">
      </style></defs><rect x="0" y="0" width="1378" height="474.5" fill="#f6f8fc"/><g transform="translate(10 10) rotate(0 59.400000000000006 11.25)"><text x="0" y="16.1103515625" font-family="Helvetica, Segoe UI Emoji" font-size="18px" fill="#0f1a2b" text-anchor="start" style="white-space: pre;" direction="ltr" dominant-baseline="alphabetic">1 · The loop</text></g><g transform="translate(10 36) rotate(0 417.45 6.875)"><text x="0" y="9.84521484375" font-family="Helvetica, Segoe UI Emoji" font-size="11px" fill="#5b6b82" text-anchor="start" style="white-space: pre;" direction="ltr" dominant-baseline="alphabetic">Nodes are automated with LLMs while edges remain human. Every node leaves a savepoint behind: an MD for Claude, an artifact for your team.</text></g><g stroke-linecap="round" transform="translate(10 124) rotate(0 85 70)"><path d="M32 0 C64.35 2.02, 102.39 1.93, 138 0 C158.92 0.36, 172.32 13.58, 170 32 C168.28 52.12, 170.2 80.49, 170 108 C167.41 130.08, 157.91 140.54, 138 140 C103.72 137.87, 68.95 137.24, 32 140 C11.36 136.47, 2.85 128.69, 0 108 C2.35 87.2, 3.33 66.92, 0 32 C-1.52 8.09, 12.76 -2.15, 32 0" stroke="none" stroke-width="0" fill="#eaf0fd"/><path d="M32 0 C66.18 -0.59, 99.77 -0.36, 138 0 M32 0 C54.77 0.83, 76.09 1.35, 138 0 M138 0 C158.23 0.43, 169.44 8.98, 170 32 M138 0 C158.76 0.82, 170.49 11.7, 170 32 M170 32 C170.52 53.47, 171.05 74.72, 170 108 M170 32 C169.87 60.65, 170.72 88.82, 170 108 M170 108 C168.6 130.77, 160.42 139.5, 138 140 M170 108 C171.11 129.48, 160.29 140.45, 138 140 M138 140 C113.02 138.54, 88.3 138.98, 32 140 M138 140 C98.35 139.78, 59.36 140.66, 32 140 M32 140 C11.77 140.22, -1.47 130.9, 0 108 M32 140 C12.24 140.45, -0.06 127.18, 0 108 M0 108 C-0.07 81.57, 0.45 53.45, 0 32 M0 108 C-0.3 83.04, 1.43 57.28, 0 32 M0 32 C-1.03 9.63, 10.94 1.09, 32 0 M0 32 C-2.26 11.38, 9.16 2.26, 32 0" stroke="#2c4f9e" stroke-width="1" fill="none"/></g><g transform="translate(22 134) rotate(0 21.450000000000003 8.125)"><text x="0" y="11.63525390625" font-family="Helvetica, Segoe UI Emoji" font-size="13px" fill="#0f1a2b" text-anchor="start" style="white-space: pre;" direction="ltr" dominant-baseline="alphabetic">Ramble</text></g><g transform="translate(22 158.1) rotate(0 45 6.25)"><text x="0" y="9.716796875" font-family="Cascadia, Segoe UI Emoji" font-size="10px" fill="#5b6b82" text-anchor="start" style="white-space: pre;" direction="ltr" dominant-baseline="alphabetic">voice, 5-10 min</text></g><g transform="translate(22 174.1) rotate(0 30 6.25)"><text x="0" y="9.716796875" font-family="Cascadia, Segoe UI Emoji" font-size="10px" fill="#5b6b82" text-anchor="start" style="white-space: pre;" direction="ltr" dominant-baseline="alphabetic">no editing</text></g><g transform="translate(22 190.1) rotate(0 48 6.25)"><text x="0" y="9.716796875" font-family="Cascadia, Segoe UI Emoji" font-size="10px" fill="#5b6b82" text-anchor="start" style="white-space: pre;" direction="ltr" dominant-baseline="alphabetic">craft questions,</text></g><g transform="translate(22 206.1) rotate(0 33 6.25)"><text x="0" y="9.716796875" font-family="Cascadia, Segoe UI Emoji" font-size="10px" fill="#5b6b82" text-anchor="start" style="white-space: pre;" direction="ltr" dominant-baseline="alphabetic">not answers</text></g><g stroke-linecap="round" transform="translate(208 124) rotate(0 85 70)"><path d="M32 0 C65.8 0.91, 98.06 -2.43, 138 0 C162.29 -0.59, 166.49 12.86, 170 32 C168.08 60.3, 167.41 84.62, 170 108 C168.89 125.9, 162.08 140.98, 138 140 C99.62 140.27, 59.02 138.42, 32 140 C8.37 136.82, -0.48 131.68, 0 108 C0.29 82.56, 0.08 53.22, 0 32 C1.83 7.91, 12.2 -3.53, 32 0" stroke="none" stroke-width="0" fill="#eaf0fd"/><path d="M32 0 C58.61 2.33, 81.95 1.52, 138 0 M32 0 C65.99 -1.23, 99.82 -0.95, 138 0 M138 0 C160.51 -0.09, 171.88 10.07, 170 32 M138 0 C157.56 0.04, 172.13 12.6, 170 32 M170 32 C169.17 57.59, 170.04 83.96, 170 108 M170 32 C170.54 56.96, 170.32 82.85, 170 108 M170 108 C168.99 128.7, 157.89 138.73, 138 140 M170 108 C170.38 129.2, 159.91 140.32, 138 140 M138 140 C101.19 138.93, 61.37 140.65, 32 140 M138 140 C107.77 140.19, 75.13 140.06, 32 140 M32 140 C12.53 138.63, 0.08 129.53, 0 108 M32 140 C11.05 141.13, 0.02 128.27, 0 108 M0 108 C1.86 83.29, 1.27 59.51, 0 32 M0 108 C-1 81.51, -0.39 56.81, 0 32 M0 32 C-0.26 10.19, 10.13 0.65, 32 0 M0 32 C-0.13 9.36, 12.4 2.3, 32 0" stroke="#2c4f9e" stroke-width="1" fill="none"/></g><g transform="translate(220 134) rotate(0 28.599999999999994 8.125)"><text x="0" y="11.63525390625" font-family="Helvetica, Segoe UI Emoji" font-size="13px" fill="#0f1a2b" text-anchor="start" style="white-space: pre;" direction="ltr" dominant-baseline="alphabetic">Research</text></g><g transform="translate(220 158.1) rotate(0 33 6.25)"><text x="0" y="9.716796875" font-family="Cascadia, Segoe UI Emoji" font-size="10px" fill="#5b6b82" text-anchor="start" style="white-space: pre;" direction="ltr" dominant-baseline="alphabetic">new session</text></g><g transform="translate(220 174.1) rotate(0 51 6.25)"><text x="0" y="9.716796875" font-family="Cascadia, Segoe UI Emoji" font-size="10px" fill="#5b6b82" text-anchor="start" style="white-space: pre;" direction="ltr" dominant-baseline="alphabetic">read the codebase</text></g><g transform="translate(220 190.1) rotate(0 42 6.25)"><text x="0" y="9.716796875" font-family="Cascadia, Segoe UI Emoji" font-size="10px" fill="#5b6b82" text-anchor="start" style="white-space: pre;" direction="ltr" dominant-baseline="alphabetic">what is there,</text></g><g transform="translate(220 206.1) rotate(0 33 6.25)"><text x="0" y="9.716796875" font-family="Cascadia, Segoe UI Emoji" font-size="10px" fill="#5b6b82" text-anchor="start" style="white-space: pre;" direction="ltr" dominant-baseline="alphabetic">what is not</text></g><g stroke-linecap="round"><g transform="translate(184 194) rotate(0 9 0)"><path d="M0 0 C6.57 0.91, 12.87 0.77, 18 0 M0 0 C5.59 -0.37, 10.83 0.47, 18 0" stroke="#5b6b82" stroke-width="1" fill="none"/></g><g transform="translate(184 194) rotate(0 9 0)"><path d="M9.62 3.27 C12.68 2.6, 15.62 1.41, 18 0 M9.62 3.27 C12.23 2.06, 14.66 1.47, 18 0" stroke="#5b6b82" stroke-width="1" fill="none"/></g><g transform="translate(184 194) rotate(0 9 0)"><path d="M9.47 -2.88 C12.6 -1.44, 15.59 -0.52, 18 0 M9.47 -2.88 C12.11 -2.17, 14.58 -0.85, 18 0" stroke="#5b6b82" stroke-width="1" fill="none"/></g></g><mask/><g stroke-linecap="round" transform="translate(406 124) rotate(0 85 70)"><path d="M32 0 C61.91 3.75, 84.41 3.61, 138 0 C162.11 3.4, 170.7 7.62, 170 32 C171.25 53.59, 172.21 72.2, 170 108 C170.61 130.2, 156.69 139.38, 138 140 C108.83 140.26, 82.3 141.3, 32 140 C13.72 142.75, -1.48 130.2, 0 108 C-4.6 81.09, -3.9 50.52, 0 32 C2.36 8.13, 9.09 0.82, 32 0" stroke="none" stroke-width="0" fill="#eaf0fd"/><path d="M32 0 C69.18 -2.51, 108.87 -0.17, 138 0 M32 0 C70.2 0.2, 106.5 -0.86, 138 0 M138 0 C160.71 1.61, 169.24 9.18, 170 32 M138 0 C158.86 -1.77, 171.21 11.78, 170 32 M170 32 C169.81 52.45, 171.95 72.83, 170 108 M170 32 C169.29 52.61, 169 74.68, 170 108 M170 108 C169.09 127.35, 160.94 138.97, 138 140 M170 108 C170 131.06, 160.4 141.79, 138 140 M138 140 C111.18 140.04, 86.2 137.98, 32 140 M138 140 C107.32 139.5, 77.96 140.14, 32 140 M32 140 C11.88 140.82, 0.9 128.57, 0 108 M32 140 C12.14 138.26, -0.87 129.06, 0 108 M0 108 C-0.75 83.8, 1.25 58.99, 0 32 M0 108 C0.26 77.8, 1.02 48.93, 0 32 M0 32 C-0.86 10.12, 11.25 -0.6, 32 0 M0 32 C1.19 9.64, 10.43 -0.22, 32 0" stroke="#2c4f9e" stroke-width="1" fill="none"/></g><g transform="translate(418 134) rotate(0 14.300000000000011 8.125)"><text x="0" y="11.63525390625" font-family="Helvetica, Segoe UI Emoji" font-size="13px" fill="#0f1a2b" text-anchor="start" style="white-space: pre;" direction="ltr" dominant-baseline="alphabetic">Plan</text></g><g transform="translate(418 158.1) rotate(0 33 6.25)"><text x="0" y="9.716796875" font-family="Cascadia, Segoe UI Emoji" font-size="10px" fill="#5b6b82" text-anchor="start" style="white-space: pre;" direction="ltr" dominant-baseline="alphabetic">new session</text></g><g transform="translate(418 174.1) rotate(0 57 6.25)"><text x="0" y="9.716796875" font-family="Cascadia, Segoe UI Emoji" font-size="10px" fill="#5b6b82" text-anchor="start" style="white-space: pre;" direction="ltr" dominant-baseline="alphabetic">phases + code lines</text></g><g transform="translate(418 190.1) rotate(0 57 6.25)"><text x="0" y="9.716796875" font-family="Cascadia, Segoe UI Emoji" font-size="10px" fill="#5b6b82" text-anchor="start" style="white-space: pre;" direction="ltr" dominant-baseline="alphabetic">2-3 feedback passes</text></g><g stroke-linecap="round"><g transform="translate(382 194) rotate(0 9 0)"><path d="M0 0 C3.42 0.09, 7.7 -0.47, 18 0 M0 0 C6.72 -0.03, 14.15 0.18, 18 0" stroke="#5b6b82" stroke-width="1" fill="none"/></g><g transform="translate(382 194) rotate(0 9 0)"><path d="M9.6 3.22 C11.19 2.57, 13.2 1.59, 18 0 M9.6 3.22 C12.71 1.96, 16.2 0.81, 18 0" stroke="#5b6b82" stroke-width="1" fill="none"/></g><g transform="translate(382 194) rotate(0 9 0)"><path d="M9.49 -2.93 C11.08 -2.25, 13.11 -1.89, 18 0 M9.49 -2.93 C12.67 -1.81, 16.19 -0.56, 18 0" stroke="#5b6b82" stroke-width="1" fill="none"/></g></g><mask/><g stroke-linecap="round" transform="translate(604 124) rotate(0 85 70)"><path d="M32 0 C58.45 -1.74, 86.62 1.73, 138 0 C161.77 2.32, 170.67 8.79, 170 32 C167.6 50.05, 171.41 67.75, 170 108 C170.37 127.12, 159.6 138.28, 138 140 C101.78 141.61, 62.8 138.51, 32 140 C11.06 140.29, -1.22 132.87, 0 108 C-2.37 79.13, -2.44 48.61, 0 32 C3.55 14.12, 10.47 1.46, 32 0" stroke="none" stroke-width="0" fill="#eaf0fd"/><path d="M32 0 C57.14 0.3, 81.11 -0.19, 138 0 M32 0 C61.24 -1.68, 90.28 -1.36, 138 0 M138 0 C158.63 1.33, 169.88 8.76, 170 32 M138 0 C158.98 0.69, 168.34 11.94, 170 32 M170 32 C170.22 53.15, 171.98 72.61, 170 108 M170 32 C170.45 48.29, 170.38 65.42, 170 108 M170 108 C169.8 127.74, 159.53 139.78, 138 140 M170 108 C171.03 131.11, 157.68 141.97, 138 140 M138 140 C102.12 138.15, 62.71 137.63, 32 140 M138 140 C114.36 141.23, 92.76 141.7, 32 140 M32 140 C9.32 140.92, 1.71 130.07, 0 108 M32 140 C9.33 138.23, 1.16 128.61, 0 108 M0 108 C-0.92 83.87, 0.66 58.1, 0 32 M0 108 C1.3 81.89, 0.48 57.06, 0 32 M0 32 C-0.92 9.23, 11.13 1.74, 32 0 M0 32 C0.23 8.73, 9.51 0.5, 32 0" stroke="#2c4f9e" stroke-width="1" fill="none"/></g><g transform="translate(616 134) rotate(0 21.44999999999999 8.125)"><text x="0" y="11.63525390625" font-family="Helvetica, Segoe UI Emoji" font-size="13px" fill="#0f1a2b" text-anchor="start" style="white-space: pre;" direction="ltr" dominant-baseline="alphabetic">Slices</text></g><g transform="translate(616 158.1) rotate(0 33 6.25)"><text x="0" y="9.716796875" font-family="Cascadia, Segoe UI Emoji" font-size="10px" fill="#5b6b82" text-anchor="start" style="white-space: pre;" direction="ltr" dominant-baseline="alphabetic">cut the pie</text></g><g transform="translate(616 174.1) rotate(0 45 6.25)"><text x="0" y="9.716796875" font-family="Cascadia, Segoe UI Emoji" font-size="10px" fill="#5b6b82" text-anchor="start" style="white-space: pre;" direction="ltr" dominant-baseline="alphabetic">vertical, never</text></g><g transform="translate(616 190.1) rotate(0 30 6.25)"><text x="0" y="9.716796875" font-family="Cascadia, Segoe UI Emoji" font-size="10px" fill="#5b6b82" text-anchor="start" style="white-space: pre;" direction="ltr" dominant-baseline="alphabetic">horizontal</text></g><g stroke-linecap="round"><g transform="translate(580 194) rotate(0 9 0)"><path d="M0 0 C6.45 -0.33, 11.29 0.49, 18 0 M0 0 C5.85 0.11, 11.19 0.12, 18 0" stroke="#5b6b82" stroke-width="1" fill="none"/></g><g transform="translate(580 194) rotate(0 9 0)"><path d="M9.58 3.18 C12.61 1.98, 14.84 1.35, 18 0 M9.58 3.18 C12.33 2.28, 14.82 1.32, 18 0" stroke="#5b6b82" stroke-width="1" fill="none"/></g><g transform="translate(580 194) rotate(0 9 0)"><path d="M9.5 -2.97 C12.57 -2.17, 14.83 -0.79, 18 0 M9.5 -2.97 C12.28 -2.02, 14.8 -1.12, 18 0" stroke="#5b6b82" stroke-width="1" fill="none"/></g></g><mask/><g stroke-linecap="round" transform="translate(802 124) rotate(0 85 70)"><path d="M32 0 C74.04 2.42, 114.38 -0.41, 138 0 C156.98 0.8, 171.8 13.4, 170 32 C169.29 46.34, 171.29 67.47, 170 108 C169.82 132.75, 158.73 139.62, 138 140 C118.68 140.36, 97.31 144.74, 32 140 C11.92 140.83, -3.26 128.23, 0 108 C2.39 90.31, -1.66 79.3, 0 32 C0.47 8.64, 12.86 -0.47, 32 0" stroke="none" stroke-width="0" fill="#e9f7f1"/><path d="M32 0 C65.22 -0.9, 93.04 1.19, 138 0 M32 0 C60.28 -1.41, 88.76 0.05, 138 0 M138 0 C159.71 -0.97, 171.22 10.23, 170 32 M138 0 C159.51 -2.25, 169.76 11.56, 170 32 M170 32 C171.15 55.6, 170.74 80.11, 170 108 M170 32 C170.34 56, 171.02 81.2, 170 108 M170 108 C169.62 131.11, 158.33 139.73, 138 140 M170 108 C169.03 130.31, 158.51 138.65, 138 140 M138 140 C113.98 137.54, 87.56 137.32, 32 140 M138 140 C96.7 139.71, 56.12 140.03, 32 140 M32 140 C10.31 138.32, 0.5 129.24, 0 108 M32 140 C11.39 137.82, -0.83 128.65, 0 108 M0 108 C-0.66 84.09, 1.28 56.82, 0 32 M0 108 C0.49 81.2, -0.18 54.5, 0 32 M0 32 C-0.2 12.32, 11.1 0.43, 32 0 M0 32 C-0.28 9.83, 9.17 1.06, 32 0" stroke="#146b4c" stroke-width="1" fill="none"/></g><g transform="translate(814 134) rotate(0 32.19999999999999 8.125)"><text x="0" y="11.63525390625" font-family="Helvetica, Segoe UI Emoji" font-size="13px" fill="#0f1a2b" text-anchor="start" style="white-space: pre;" direction="ltr" dominant-baseline="alphabetic">Implement</text></g><g transform="translate(814 158.1) rotate(0 45 6.25)"><text x="0" y="9.716796875" font-family="Cascadia, Segoe UI Emoji" font-size="10px" fill="#5b6b82" text-anchor="start" style="white-space: pre;" direction="ltr" dominant-baseline="alphabetic">/goal Implement</text></g><g transform="translate(814 174.1) rotate(0 54 6.25)"><text x="0" y="9.716796875" font-family="Cascadia, Segoe UI Emoji" font-size="10px" fill="#5b6b82" text-anchor="start" style="white-space: pre;" direction="ltr" dominant-baseline="alphabetic">slice 1 of plan.md</text></g><g transform="translate(814 190.1) rotate(0 48 6.25)"><text x="0" y="9.716796875" font-family="Cascadia, Segoe UI Emoji" font-size="10px" fill="#5b6b82" text-anchor="start" style="white-space: pre;" direction="ltr" dominant-baseline="alphabetic">global CLAUDE.md</text></g><g stroke-linecap="round"><g transform="translate(778 194) rotate(0 9 0)"><path d="M0 0 C3.84 0.69, 9.07 -0.63, 18 0 M0 0 C4.24 -0.2, 9.15 -0.18, 18 0" stroke="#5b6b82" stroke-width="1" fill="none"/></g><g transform="translate(778 194) rotate(0 9 0)"><path d="M9.49 2.94 C11.3 2.58, 13.8 1.21, 18 0 M9.49 2.94 C11.48 2.12, 13.81 1.42, 18 0" stroke="#5b6b82" stroke-width="1" fill="none"/></g><g transform="translate(778 194) rotate(0 9 0)"><path d="M9.6 -3.22 C11.36 -2.1, 13.84 -1.99, 18 0 M9.6 -3.22 C11.58 -2.54, 13.89 -1.74, 18 0" stroke="#5b6b82" stroke-width="1" fill="none"/></g></g><mask/><g stroke-linecap="round" transform="translate(1000 124) rotate(0 85 70)"><path d="M32 0 C57.58 -0.67, 87.76 -2.3, 138 0 C161.03 -1.03, 173.33 14.16, 170 32 C166.83 58.19, 167.52 78.64, 170 108 C173.24 131.54, 160.8 141.66, 138 140 C100.6 137.59, 65.36 141.89, 32 140 C7.12 137.89, 0.34 127.01, 0 108 C-2.67 77.81, -2.7 45.23, 0 32 C2.37 10.68, 13.67 1.39, 32 0" stroke="none" stroke-width="0" fill="#fbf1e4"/><path d="M32 0 C62.5 -0.74, 89.24 -0.15, 138 0 M32 0 C69.86 0.72, 107.8 -0.41, 138 0 M138 0 C158.34 -1.05, 171.25 11.22, 170 32 M138 0 C158.2 -1.59, 171.6 11.38, 170 32 M170 32 C168.87 60.49, 168.97 90.86, 170 108 M170 32 C169.64 61.5, 168.49 91.42, 170 108 M170 108 C168.88 131.02, 157.73 141.4, 138 140 M170 108 C169.84 129.72, 159.19 140.8, 138 140 M138 140 C112.64 141.13, 86.13 139.67, 32 140 M138 140 C114.3 141.72, 91.55 141.67, 32 140 M32 140 C11.74 139.48, -0.64 129.86, 0 108 M32 140 C12.04 141.31, 1.36 129.04, 0 108 M0 108 C-2.57 79.94, 0.13 50.65, 0 32 M0 108 C-1.24 90.5, -0.73 75.35, 0 32 M0 32 C0.97 8.83, 10.59 -0.36, 32 0 M0 32 C-1.52 9.62, 11.09 0.8, 32 0" stroke="#96540f" stroke-width="1" fill="none"/></g><g transform="translate(1012 134) rotate(0 21.450000000000045 8.125)"><text x="0" y="11.63525390625" font-family="Helvetica, Segoe UI Emoji" font-size="13px" fill="#0f1a2b" text-anchor="start" style="white-space: pre;" direction="ltr" dominant-baseline="alphabetic">Review</text></g><g transform="translate(1012 158.1) rotate(0 39 6.25)"><text x="0" y="9.716796875" font-family="Cascadia, Segoe UI Emoji" font-size="10px" fill="#5b6b82" text-anchor="start" style="white-space: pre;" direction="ltr" dominant-baseline="alphabetic">read the diff</text></g><g transform="translate(1012 174.1) rotate(0 39 6.25)"><text x="0" y="9.716796875" font-family="Cascadia, Segoe UI Emoji" font-size="10px" fill="#5b6b82" text-anchor="start" style="white-space: pre;" direction="ltr" dominant-baseline="alphabetic">kill the slop</text></g><g transform="translate(1012 190.1) rotate(0 33 6.25)"><text x="0" y="9.716796875" font-family="Cascadia, Segoe UI Emoji" font-size="10px" fill="#5b6b82" text-anchor="start" style="white-space: pre;" direction="ltr" dominant-baseline="alphabetic">E2E + video</text></g><g stroke-linecap="round"><g transform="translate(976 194) rotate(0 9 0)"><path d="M0 0 C5.26 -0.24, 9.34 -0.78, 18 0 M0 0 C4.43 0.22, 9.87 0.3, 18 0" stroke="#5b6b82" stroke-width="1" fill="none"/></g><g transform="translate(976 194) rotate(0 9 0)"><path d="M9.63 3.3 C12.07 2.27, 13.94 1.1, 18 0 M9.63 3.3 C11.69 2.53, 14.24 1.69, 18 0" stroke="#5b6b82" stroke-width="1" fill="none"/></g><g transform="translate(976 194) rotate(0 9 0)"><path d="M9.46 -2.85 C11.98 -2.19, 13.89 -1.68, 18 0 M9.46 -2.85 C11.54 -1.98, 14.14 -1.18, 18 0" stroke="#5b6b82" stroke-width="1" fill="none"/></g></g><mask/><g stroke-linecap="round" transform="translate(1198 124) rotate(0 85 70)"><path d="M32 0 C67.22 3.52, 102.77 -2.18, 138 0 C158.46 -1.39, 167.35 11.54, 170 32 C169.03 46.52, 169.49 63.19, 170 108 C168.4 129.61, 159.62 141.29, 138 140 C96.27 142.84, 59.56 136.84, 32 140 C9.36 138.33, -2.93 129.93, 0 108 C-1.6 88.81, 2.16 65.28, 0 32 C-3.41 11.08, 11.41 -0.57, 32 0" stroke="none" stroke-width="0" fill="#e9f7f1"/><path d="M32 0 C69.34 1.63, 103.2 1.91, 138 0 M32 0 C71.65 -0.31, 111.21 -1.17, 138 0 M138 0 C160.5 1.37, 170.05 8.99, 170 32 M138 0 C160.7 -1.32, 170.13 11.63, 170 32 M170 32 C171.14 50.37, 170.32 70, 170 108 M170 32 C168.83 54.47, 168.7 75.76, 170 108 M170 108 C170.21 129.87, 160.21 139.54, 138 140 M170 108 C167.71 129.07, 160.04 140.51, 138 140 M138 140 C104.86 141.42, 72.07 141.46, 32 140 M138 140 C114.62 140.73, 91.37 140.28, 32 140 M32 140 C9.11 141.59, 0.97 127.64, 0 108 M32 140 C8.84 139.92, 1.41 127.12, 0 108 M0 108 C1.3 83.31, 0.02 59.9, 0 32 M0 108 C0.69 84.13, 0.64 60.4, 0 32 M0 32 C0.23 12.45, 8.7 0.65, 32 0 M0 32 C-1.43 12.74, 10.96 -1.9, 32 0" stroke="#146b4c" stroke-width="1" fill="none"/></g><g transform="translate(1210 134) rotate(0 17.899999999999977 8.125)"><text x="0" y="11.63525390625" font-family="Helvetica, Segoe UI Emoji" font-size="13px" fill="#0f1a2b" text-anchor="start" style="white-space: pre;" direction="ltr" dominant-baseline="alphabetic">Share</text></g><g transform="translate(1210 158.1) rotate(0 42 6.25)"><text x="0" y="9.716796875" font-family="Cascadia, Segoe UI Emoji" font-size="10px" fill="#5b6b82" text-anchor="start" style="white-space: pre;" direction="ltr" dominant-baseline="alphabetic">MR description</text></g><g transform="translate(1210 174.1) rotate(0 21 6.25)"><text x="0" y="9.716796875" font-family="Cascadia, Segoe UI Emoji" font-size="10px" fill="#5b6b82" text-anchor="start" style="white-space: pre;" direction="ltr" dominant-baseline="alphabetic">by hand</text></g><g transform="translate(1210 190.1) rotate(0 42 6.25)"><text x="0" y="9.716796875" font-family="Cascadia, Segoe UI Emoji" font-size="10px" fill="#5b6b82" text-anchor="start" style="white-space: pre;" direction="ltr" dominant-baseline="alphabetic">2-3 paragraphs</text></g><g stroke-linecap="round"><g transform="translate(1174 194) rotate(0 9 0)"><path d="M0 0 C5.83 -0.91, 10.55 0.76, 18 0 M0 0 C7.38 0.34, 13.95 0.09, 18 0" stroke="#5b6b82" stroke-width="1" fill="none"/></g><g transform="translate(1174 194) rotate(0 9 0)"><path d="M9.62 3.28 C12.34 1.85, 14.52 1.7, 18 0 M9.62 3.28 C13.08 2.17, 16.13 0.76, 18 0" stroke="#5b6b82" stroke-width="1" fill="none"/></g><g transform="translate(1174 194) rotate(0 9 0)"><path d="M9.47 -2.88 C12.25 -2.47, 14.47 -0.78, 18 0 M9.47 -2.88 C12.96 -1.58, 16.06 -0.59, 18 0" stroke="#5b6b82" stroke-width="1" fill="none"/></g></g><mask/><g stroke-linecap="round"><g transform="translate(95 270) rotate(0 0 14)"><path d="M0 0 C0.38 11.13, 0 19.75, 0 28" stroke="#8595ab" stroke-width="1.5" fill="none" stroke-dasharray="8 9"/></g></g><mask/><g stroke-linecap="round" transform="translate(10 304) rotate(0 85 27)"><path d="M13.5 0 C48.63 -0.61, 86.56 -4.43, 156.5 0 C165.66 3.12, 169.14 3.02, 170 13.5 C172.68 25.56, 166.53 33.88, 170 40.5 C170.93 52.52, 162.31 52.77, 156.5 54 C119.52 52.81, 83.71 54.8, 13.5 54 C6.55 53, -3.11 52.87, 0 40.5 C-2.47 32.57, -3.09 28.69, 0 13.5 C2.06 6.9, 4.93 -0.41, 13.5 0" stroke="none" stroke-width="0" fill="#eff3f9"/><path d="M13.5 0 C42.53 1.95, 71.14 1.59, 156.5 0 M13.5 0 C52.17 -0.1, 88.5 -0.56, 156.5 0 M156.5 0 C164.24 1.58, 168.58 5.48, 170 13.5 M156.5 0 C167.53 -0.52, 170.78 6.2, 170 13.5 M170 13.5 C169.79 20.6, 168.72 29.84, 170 40.5 M170 13.5 C169.91 19.99, 170.93 24.1, 170 40.5 M170 40.5 C171.44 51.11, 166.44 53.01, 156.5 54 M170 40.5 C171.82 51.08, 165.14 55.36, 156.5 54 M156.5 54 C124.18 54.36, 94.73 53.27, 13.5 54 M156.5 54 C100.81 53.7, 44.76 53.83, 13.5 54 M13.5 54 C4.94 55.39, 0.09 49.91, 0 40.5 M13.5 54 C2.38 52.61, -0.28 47.68, 0 40.5 M0 40.5 C-1.77 31.82, -2.02 27.5, 0 13.5 M0 40.5 C0.23 34.6, 0.34 29.41, 0 13.5 M0 13.5 C0.53 3.42, 3.64 -0.46, 13.5 0 M0 13.5 C-1.67 3.24, 6.26 1.6, 13.5 0" stroke="#c6d2e2" stroke-width="1" fill="none"/></g><g transform="translate(22 314) rotate(0 39.349999999999994 6.875)"><text x="0" y="9.84521484375" font-family="Helvetica, Segoe UI Emoji" font-size="11px" fill="#0f1a2b" text-anchor="start" style="white-space: pre;" direction="ltr" dominant-baseline="alphabetic">ramble-XYZ.md</text></g><g transform="translate(22 334.7) rotate(0 24.299999999999997 5.625)"><text x="0" y="8.7451171875" font-family="Cascadia, Segoe UI Emoji" font-size="9px" fill="#5b6b82" text-anchor="start" style="white-space: pre;" direction="ltr" dominant-baseline="alphabetic">savepoint</text></g><g stroke-linecap="round"><g transform="translate(293 270) rotate(0 0 14)"><path d="M0 0 C0.08 10.09, -0.94 20.94, 0 28" stroke="#8595ab" stroke-width="1.5" fill="none" stroke-dasharray="8 9"/></g></g><mask/><g stroke-linecap="round" transform="translate(208 304) rotate(0 85 27)"><path d="M13.5 0 C49.44 5.2, 81.18 4.46, 156.5 0 C163.04 -0.19, 167.56 3.72, 170 13.5 C167.43 23.9, 166.68 30.66, 170 40.5 C173.02 47.28, 162.62 55.3, 156.5 54 C106.58 58.92, 57.48 53, 13.5 54 C3.87 53.41, 0.99 47.01, 0 40.5 C-0.01 33.49, 2.78 23.37, 0 13.5 C3.07 6.36, 1.34 0.02, 13.5 0" stroke="none" stroke-width="0" fill="#eff3f9"/><path d="M13.5 0 C68.29 0.77, 123.39 0.51, 156.5 0 M13.5 0 C64.55 0.02, 114.56 -1.33, 156.5 0 M156.5 0 C163.94 -0.97, 168.71 4.24, 170 13.5 M156.5 0 C166.02 -1.8, 172.2 2.35, 170 13.5 M170 13.5 C171.72 23.18, 171.53 31.03, 170 40.5 M170 13.5 C169.69 20.61, 170.63 29.15, 170 40.5 M170 40.5 C169.37 49.22, 165.95 53.75, 156.5 54 M170 40.5 C171 47.39, 167.58 53.01, 156.5 54 M156.5 54 C125.82 52.28, 100.32 53.61, 13.5 54 M156.5 54 C115.74 54.66, 76.2 54.99, 13.5 54 M13.5 54 C3.55 53.36, 0.16 48.6, 0 40.5 M13.5 54 C3.48 52.07, -0.82 48.52, 0 40.5 M0 40.5 C1.88 31.71, 0.29 24.75, 0 13.5 M0 40.5 C0.54 34.71, -0.91 26.75, 0 13.5 M0 13.5 C0.75 6.22, 3.48 -1.24, 13.5 0 M0 13.5 C2.26 6.09, 2.8 -1.87, 13.5 0" stroke="#c6d2e2" stroke-width="1" fill="none"/></g><g transform="translate(220 314) rotate(0 45.400000000000006 6.875)"><text x="0" y="9.84521484375" font-family="Helvetica, Segoe UI Emoji" font-size="11px" fill="#0f1a2b" text-anchor="start" style="white-space: pre;" direction="ltr" dominant-baseline="alphabetic">research-XYZ.md</text></g><g transform="translate(220 334.7) rotate(0 54 5.625)"><text x="0" y="8.7451171875" font-family="Cascadia, Segoe UI Emoji" font-size="9px" fill="#5b6b82" text-anchor="start" style="white-space: pre;" direction="ltr" dominant-baseline="alphabetic">savepoint + artifact</text></g><g stroke-linecap="round"><g transform="translate(491 270) rotate(0 0 14)"><path d="M0 0 C-0.46 8.26, -0.9 14.28, 0 28" stroke="#8595ab" stroke-width="1.5" fill="none" stroke-dasharray="8 9"/></g></g><mask/><g stroke-linecap="round" transform="translate(406 304) rotate(0 85 27)"><path d="M13.5 0 C49.46 2.27, 77.74 2.47, 156.5 0 C165.57 1.91, 170.02 4.06, 170 13.5 C166.58 18.83, 169.21 28.86, 170 40.5 C172.97 49.77, 163.17 51.41, 156.5 54 C125.27 56.78, 90.61 50.97, 13.5 54 C7.23 53.19, 0.63 50.55, 0 40.5 C-1.91 36.92, -1.53 27.55, 0 13.5 C0.84 7.5, 4.55 3.14, 13.5 0" stroke="none" stroke-width="0" fill="#eff3f9"/><path d="M13.5 0 C45.57 0.03, 76.39 2.87, 156.5 0 M13.5 0 C53.6 2.15, 91.1 1.38, 156.5 0 M156.5 0 C164.62 -0.37, 169.98 3.58, 170 13.5 M156.5 0 C164.86 -0.33, 167.72 6.75, 170 13.5 M170 13.5 C170.02 21.8, 168.83 27.6, 170 40.5 M170 13.5 C169.38 21.35, 170.87 28.81, 170 40.5 M170 40.5 C171.15 48.74, 166.74 53.32, 156.5 54 M170 40.5 C170.94 49.35, 163.39 53.46, 156.5 54 M156.5 54 C100.6 54.31, 48.03 53.95, 13.5 54 M156.5 54 C124.42 51.76, 93.34 52.64, 13.5 54 M13.5 54 C2.95 55.12, 0.41 50.03, 0 40.5 M13.5 54 C4.61 55.18, -1.46 50.94, 0 40.5 M0 40.5 C-0.73 32.58, 0.54 19.25, 0 13.5 M0 40.5 C-0.67 32.63, -0.46 25.34, 0 13.5 M0 13.5 C1.69 3.1, 2.7 0.22, 13.5 0 M0 13.5 C-1.08 3.13, 4.11 0.96, 13.5 0" stroke="#c6d2e2" stroke-width="1" fill="none"/></g><g transform="translate(418 314) rotate(0 33.30000000000001 6.875)"><text x="0" y="9.84521484375" font-family="Helvetica, Segoe UI Emoji" font-size="11px" fill="#0f1a2b" text-anchor="start" style="white-space: pre;" direction="ltr" dominant-baseline="alphabetic">plan-XYZ.md</text></g><g transform="translate(418 334.7) rotate(0 54 5.625)"><text x="0" y="8.7451171875" font-family="Cascadia, Segoe UI Emoji" font-size="9px" fill="#5b6b82" text-anchor="start" style="white-space: pre;" direction="ltr" dominant-baseline="alphabetic">savepoint + artifact</text></g><g stroke-linecap="round"><g transform="translate(689 270) rotate(0 0 14)"><path d="M0 0 C-0.76 7.75, 0.43 17.65, 0 28" stroke="#8595ab" stroke-width="1.5" fill="none" stroke-dasharray="8 9"/></g></g><mask/><g stroke-linecap="round" transform="translate(604 304) rotate(0 85 27)"><path d="M13.5 0 C67.45 -0.52, 114.54 3.99, 156.5 0 C168.55 -0.98, 173.45 7.75, 170 13.5 C168.61 23.57, 172.11 31.19, 170 40.5 C167.61 50.35, 166.18 55.23, 156.5 54 C125.09 56.32, 88.62 56.47, 13.5 54 C7.06 54.35, 1.63 48.48, 0 40.5 C2.19 31.55, 0.25 19.56, 0 13.5 C2.99 2.58, 7.74 2.24, 13.5 0" stroke="none" stroke-width="0" fill="#eff3f9"/><path d="M13.5 0 C57.6 -1.92, 98 0.07, 156.5 0 M13.5 0 C48.48 -0.62, 84.24 -0.59, 156.5 0 M156.5 0 C167.4 -1.44, 171.32 2.78, 170 13.5 M156.5 0 C167.17 -1.84, 169.6 2.58, 170 13.5 M170 13.5 C171.2 20.02, 168.16 31.2, 170 40.5 M170 13.5 C170.01 20.58, 170.62 28.06, 170 40.5 M170 40.5 C169.47 50.18, 166.79 52.07, 156.5 54 M170 40.5 C168.3 48.48, 164 54.19, 156.5 54 M156.5 54 C118.58 53.56, 79.8 55.76, 13.5 54 M156.5 54 C117.12 53.99, 78.11 54.05, 13.5 54 M13.5 54 C4.29 55.36, -1.56 48.27, 0 40.5 M13.5 54 C3.36 54.36, 1.86 49.34, 0 40.5 M0 40.5 C1.39 32.12, 1.07 20.87, 0 13.5 M0 40.5 C-0.49 35.04, 0.63 29.47, 0 13.5 M0 13.5 C0.73 3.54, 4.99 1.29, 13.5 0 M0 13.5 C1.49 6.35, 4.81 2.19, 13.5 0" stroke="#c6d2e2" stroke-width="1" fill="none"/></g><g transform="translate(616 314) rotate(0 30.25 6.875)"><text x="0" y="9.84521484375" font-family="Helvetica, Segoe UI Emoji" font-size="11px" fill="#0f1a2b" text-anchor="start" style="white-space: pre;" direction="ltr" dominant-baseline="alphabetic">slice list</text></g><g transform="translate(616 334.7) rotate(0 40.5 5.625)"><text x="0" y="8.7451171875" font-family="Cascadia, Segoe UI Emoji" font-size="9px" fill="#5b6b82" text-anchor="start" style="white-space: pre;" direction="ltr" dominant-baseline="alphabetic">inside the plan</text></g><g stroke-linecap="round"><g transform="translate(887 270) rotate(0 0 14)"><path d="M0 0 C-0.86 6.88, 0.41 13.19, 0 28" stroke="#8595ab" stroke-width="1.5" fill="none" stroke-dasharray="8 9"/></g></g><mask/><g stroke-linecap="round" transform="translate(802 304) rotate(0 85 27)"><path d="M13.5 0 C61.58 -3.02, 113.76 -2.99, 156.5 0 C168.26 -0.42, 173.25 1.08, 170 13.5 C169.83 22.18, 166.56 30.08, 170 40.5 C168.05 50.14, 164.34 51.29, 156.5 54 C102.12 53.47, 41.07 54.31, 13.5 54 C2.81 52.16, 3.14 49.6, 0 40.5 C-0.7 28.88, -0.09 22.75, 0 13.5 C3.53 4.38, 4.34 3.01, 13.5 0" stroke="none" stroke-width="0" fill="#eff3f9"/><path d="M13.5 0 C47.68 -2.42, 81.69 0.78, 156.5 0 M13.5 0 C46.39 1.55, 78.19 0.14, 156.5 0 M156.5 0 C167.2 -0.53, 171.09 4.68, 170 13.5 M156.5 0 C167.38 -1.46, 171.72 5.99, 170 13.5 M170 13.5 C169.54 18.8, 168.57 25.02, 170 40.5 M170 13.5 C170.93 24.6, 170.23 34.55, 170 40.5 M170 40.5 C169.75 47.77, 166.25 55.49, 156.5 54 M170 40.5 C170.18 49.74, 167.44 54.07, 156.5 54 M156.5 54 C120.3 55.95, 85.53 55.53, 13.5 54 M156.5 54 C109.92 53.9, 63.22 54.19, 13.5 54 M13.5 54 C4.84 53.79, 0.1 49.54, 0 40.5 M13.5 54 C5.22 54.79, -0.02 48.4, 0 40.5 M0 40.5 C2.08 34.22, 0.17 26.74, 0 13.5 M0 40.5 C-0.18 31.77, 0.65 23.85, 0 13.5 M0 13.5 C-1.35 5.67, 5.61 0.99, 13.5 0 M0 13.5 C-1.48 6.1, 3.02 1.81, 13.5 0" stroke="#c6d2e2" stroke-width="1" fill="none"/></g><g transform="translate(814 314) rotate(0 24.19999999999999 6.875)"><text x="0" y="9.84521484375" font-family="Helvetica, Segoe UI Emoji" font-size="11px" fill="#0f1a2b" text-anchor="start" style="white-space: pre;" direction="ltr" dominant-baseline="alphabetic">the code</text></g><g transform="translate(814 334.7) rotate(0 54 5.625)"><text x="0" y="8.7451171875" font-family="Cascadia, Segoe UI Emoji" font-size="9px" fill="#5b6b82" text-anchor="start" style="white-space: pre;" direction="ltr" dominant-baseline="alphabetic">small atomic commits</text></g><g stroke-linecap="round"><g transform="translate(1085 270) rotate(0 0 14)"><path d="M0 0 C-0.08 10.25, 0.18 21.38, 0 28" stroke="#8595ab" stroke-width="1.5" fill="none" stroke-dasharray="8 9"/></g></g><mask/><g stroke-linecap="round" transform="translate(1000 304) rotate(0 85 27)"><path d="M13.5 0 C62 1.08, 106.07 -0.27, 156.5 0 C166.44 1.19, 166.43 1.78, 170 13.5 C170.19 21.53, 172.88 26.27, 170 40.5 C168.7 50.66, 163.27 50.68, 156.5 54 C104.98 50.38, 56.05 52.51, 13.5 54 C6.12 51.07, 3.33 52.29, 0 40.5 C-0.23 30.15, -2.93 24.87, 0 13.5 C-0.12 3.34, 4.54 0.34, 13.5 0" stroke="none" stroke-width="0" fill="#eff3f9"/><path d="M13.5 0 C56.6 -0.1, 94.96 1.65, 156.5 0 M13.5 0 C57.07 0.67, 99.89 -1.16, 156.5 0 M156.5 0 C164.95 1.24, 170.94 6.32, 170 13.5 M156.5 0 C166.98 -0.06, 169.89 6.38, 170 13.5 M170 13.5 C168.82 22.89, 170.78 33.3, 170 40.5 M170 13.5 C169.33 20.59, 170.9 25.68, 170 40.5 M170 40.5 C168.66 51.27, 167.48 52.53, 156.5 54 M170 40.5 C167.74 47.37, 165.86 55.01, 156.5 54 M156.5 54 C114.3 55.29, 76.57 55.38, 13.5 54 M156.5 54 C121.11 53.62, 86.52 54.81, 13.5 54 M13.5 54 C3.81 54.44, -1.45 47.64, 0 40.5 M13.5 54 C2.39 55.16, 0.82 49.04, 0 40.5 M0 40.5 C1.09 29.74, -0.49 20.16, 0 13.5 M0 40.5 C0.57 31.89, 0.56 25.28, 0 13.5 M0 13.5 C-0.87 3.33, 4.06 -1.35, 13.5 0 M0 13.5 C0.12 6.38, 6 -1.49, 13.5 0" stroke="#c6d2e2" stroke-width="1" fill="none"/></g><g transform="translate(1012 314) rotate(0 39.35000000000002 6.875)"><text x="0" y="9.84521484375" font-family="Helvetica, Segoe UI Emoji" font-size="11px" fill="#0f1a2b" text-anchor="start" style="white-space: pre;" direction="ltr" dominant-baseline="alphabetic">evidence.html</text></g><g transform="translate(1012 334.7) rotate(0 48.60000000000002 5.625)"><text x="0" y="8.7451171875" font-family="Cascadia, Segoe UI Emoji" font-size="9px" fill="#5b6b82" text-anchor="start" style="white-space: pre;" direction="ltr" dominant-baseline="alphabetic">video + test table</text></g><g stroke-linecap="round"><g transform="translate(1283 270) rotate(0 0 14)"><path d="M0 0 C-0.59 6.41, -0.66 13.76, 0 28" stroke="#8595ab" stroke-width="1.5" fill="none" stroke-dasharray="8 9"/></g></g><mask/><g stroke-linecap="round" transform="translate(1198 304) rotate(0 85 27)"><path d="M13.5 0 C63.46 -4.12, 109.59 1.81, 156.5 0 C163.85 -1.95, 168.53 5.77, 170 13.5 C169.44 20.95, 166.66 23.12, 170 40.5 C171.24 47.6, 168.97 56.57, 156.5 54 C118.73 50.34, 86.44 53.92, 13.5 54 C3.12 51.35, 0.08 46.13, 0 40.5 C-1.83 29.14, 0.67 26.24, 0 13.5 C2.45 5.1, 4.13 -3.19, 13.5 0" stroke="none" stroke-width="0" fill="#eff3f9"/><path d="M13.5 0 C47.64 1.34, 84.3 0.6, 156.5 0 M13.5 0 C64.16 0.63, 114.14 1.94, 156.5 0 M156.5 0 C166.78 -0.77, 169.19 4.01, 170 13.5 M156.5 0 C167.4 0.06, 172.09 5.81, 170 13.5 M170 13.5 C169.46 23.18, 168.93 33.29, 170 40.5 M170 13.5 C169.05 21.45, 169.68 29.69, 170 40.5 M170 40.5 C171.09 51.22, 163.9 53.47, 156.5 54 M170 40.5 C170.38 49.24, 163.44 53.09, 156.5 54 M156.5 54 C103.08 54.17, 45.85 52.97, 13.5 54 M156.5 54 C124.31 52.76, 91.2 53.88, 13.5 54 M13.5 54 C6.29 54.08, 1.42 48.63, 0 40.5 M13.5 54 C5.13 52.13, -1.32 48.93, 0 40.5 M0 40.5 C-1.7 35.05, -0.94 25.4, 0 13.5 M0 40.5 C-0.74 31.55, 0.75 22.09, 0 13.5 M0 13.5 C-1.24 3.24, 5.32 -1.55, 13.5 0 M0 13.5 C-2.17 2.52, 3.2 -0.18, 13.5 0" stroke="#c6d2e2" stroke-width="1" fill="none"/></g><g transform="translate(1210 314) rotate(0 42.35000000000002 6.875)"><text x="0" y="9.84521484375" font-family="Helvetica, Segoe UI Emoji" font-size="11px" fill="#0f1a2b" text-anchor="start" style="white-space: pre;" direction="ltr" dominant-baseline="alphabetic">MR description</text></g><g transform="translate(1210 334.7) rotate(0 37.799999999999955 5.625)"><text x="0" y="8.7451171875" font-family="Cascadia, Segoe UI Emoji" font-size="9px" fill="#5b6b82" text-anchor="start" style="white-space: pre;" direction="ltr" dominant-baseline="alphabetic">written by you</text></g><g transform="translate(10 388) rotate(0 41.25 6.25)"><text x="0" y="8.9501953125" font-family="Helvetica, Segoe UI Emoji" font-size="10px" fill="#8595ab" text-anchor="start" style="white-space: pre;" direction="ltr" dominant-baseline="alphabetic">THE HUMAN EDGES</text></g><g transform="translate(10 406) rotate(0 489.8 8.125)"><text x="0" y="11.63525390625" font-family="Helvetica, Segoe UI Emoji" font-size="13px" fill="#0f1a2b" text-anchor="start" style="white-space: pre;" direction="ltr" dominant-baseline="alphabetic">you ramble  ·  you read the artifact  ·  you point at the wrong lines  ·  you cut the slices  ·  you review the diff  ·  you write the MR</text></g><g stroke-linecap="round"><g transform="translate(1283 116) rotate(0 -593.5 -12)"><path d="M0 0 C0.99 -9.62, -1.21 -14.41, 0 -24 M0 -24 C-437.18 -28.5, -874.4 -28.68, -1187 -24 M-1187 -24 C-1185.4 -19.98, -1185.23 -10.67, -1187 0" stroke="#2c4f9e" stroke-width="1.5" fill="none" stroke-dasharray="8 9"/></g><g transform="translate(1283 116) rotate(0 -593.5 -12)"><path d="M-1189.74 -11.68 C-1188.49 -8.8, -1188.89 -3.05, -1187 0" stroke="#2c4f9e" stroke-width="1.5" fill="none"/></g><g transform="translate(1283 116) rotate(0 -593.5 -12)"><path d="M-1181.59 -10.71 C-1183.02 -8.22, -1186.13 -2.79, -1187 0" stroke="#2c4f9e" stroke-width="1.5" fill="none"/></g></g><mask/><g transform="translate(530 68) rotate(0 127.05000000000001 6.875)"><text x="0" y="9.84521484375" font-family="Helvetica, Segoe UI Emoji" font-size="11px" fill="#2c4f9e" text-anchor="start" style="white-space: pre;" direction="ltr" dominant-baseline="alphabetic">next slice, same mental model, much faster</text></g><g stroke-linecap="round" transform="translate(11 454) rotate(0 4 4)"><path d="M4.29 -0.29 C5.11 -0.29, 6.47 0.53, 7.09 1.23 C7.72 1.93, 8.01 3.08, 8.04 3.92 C8.07 4.77, 7.82 5.59, 7.3 6.28 C6.78 6.97, 5.77 7.8, 4.9 8.06 C4.03 8.32, 2.8 8.29, 2.07 7.86 C1.34 7.42, 0.86 6.3, 0.52 5.44 C0.18 4.58, -0.2 3.52, 0.03 2.7 C0.25 1.88, 1.15 0.99, 1.85 0.53 C2.56 0.07, 3.78 -0.04, 4.26 -0.07 C4.74 -0.09, 4.65 0.28, 4.73 0.36 M4.6 0.16 C5.3 0.12, 5.58 0.15, 6.19 0.69 C6.81 1.23, 8.09 2.45, 8.31 3.39 C8.52 4.32, 7.9 5.6, 7.47 6.33 C7.03 7.06, 6.54 7.5, 5.71 7.75 C4.89 8.01, 3.33 8.17, 2.51 7.88 C1.68 7.59, 1.13 6.87, 0.76 6 C0.38 5.13, 0.08 3.5, 0.23 2.69 C0.39 1.88, 0.93 1.62, 1.67 1.14 C2.41 0.66, 4.27 0.06, 4.66 -0.18 C5.04 -0.42, 4.08 -0.34, 3.98 -0.3" stroke="none" stroke-width="0" fill="#eaf0fd"/><path d="M4.11 -0.24 C4.93 -0.37, 5.84 0.09, 6.49 0.67 C7.14 1.25, 7.83 2.39, 8.02 3.25 C8.21 4.1, 8.12 5.09, 7.63 5.82 C7.14 6.54, 5.97 7.3, 5.08 7.59 C4.19 7.88, 3.01 7.79, 2.3 7.57 C1.6 7.35, 1.22 6.97, 0.82 6.28 C0.43 5.59, -0.17 4.33, -0.08 3.43 C0.02 2.53, 0.67 1.51, 1.39 0.9 C2.12 0.3, 3.79 -0.01, 4.27 -0.2 C4.74 -0.39, 4.28 -0.35, 4.24 -0.23 M3.36 -0.03 C4.12 -0.06, 5.4 0.62, 6.12 1.06 C6.84 1.5, 7.47 1.9, 7.68 2.6 C7.9 3.3, 7.73 4.5, 7.4 5.26 C7.07 6.02, 6.42 6.75, 5.69 7.17 C4.95 7.59, 3.79 7.97, 2.99 7.77 C2.19 7.57, 1.3 6.7, 0.88 5.98 C0.47 5.27, 0.39 4.3, 0.49 3.48 C0.59 2.67, 0.9 1.6, 1.49 1.11 C2.08 0.61, 3.64 0.73, 4 0.5 C4.37 0.28, 3.8 -0.31, 3.68 -0.27" stroke="#2c4f9e" stroke-width="1" fill="none"/></g><g transform="translate(26 452) rotate(0 57.75 6.25)"><text x="0" y="8.9501953125" font-family="Helvetica, Segoe UI Emoji" font-size="10px" fill="#5b6b82" text-anchor="start" style="white-space: pre;" direction="ltr" dominant-baseline="alphabetic">thinking, no code yet</text></g><g stroke-linecap="round" transform="translate(162.5 454) rotate(0 4 4)"><path d="M3.61 -0.02 C4.48 -0.05, 5.71 0.45, 6.44 0.96 C7.17 1.47, 7.83 2.25, 7.99 3.04 C8.15 3.82, 7.82 4.94, 7.41 5.66 C6.99 6.37, 6.3 6.95, 5.5 7.34 C4.71 7.72, 3.4 8.15, 2.64 7.96 C1.89 7.77, 1.44 6.87, 0.97 6.2 C0.51 5.53, -0.21 4.82, -0.17 3.95 C-0.13 3.08, 0.56 1.64, 1.19 0.99 C1.83 0.35, 3.24 0.22, 3.65 0.09 C4.05 -0.04, 3.61 0.14, 3.62 0.22 M4.44 0.1 C5.37 0.04, 6.21 0.74, 6.84 1.25 C7.48 1.76, 8.12 2.3, 8.23 3.15 C8.34 4, 8 5.55, 7.52 6.35 C7.04 7.15, 6.18 7.81, 5.35 7.97 C4.51 8.12, 3.22 7.6, 2.49 7.29 C1.77 6.99, 1.4 6.72, 0.97 6.13 C0.55 5.55, -0.2 4.7, -0.06 3.77 C0.07 2.84, 1.18 1.13, 1.78 0.54 C2.38 -0.05, 3.13 0.38, 3.53 0.24 C3.92 0.1, 3.98 -0.25, 4.13 -0.3" stroke="none" stroke-width="0" fill="#e9f7f1"/><path d="M4.41 -0.3 C5.27 -0.39, 6.35 0.23, 6.89 0.88 C7.43 1.53, 7.57 2.76, 7.65 3.6 C7.73 4.43, 7.81 5.2, 7.36 5.89 C6.91 6.58, 5.83 7.5, 4.96 7.74 C4.08 7.99, 2.92 7.67, 2.11 7.36 C1.3 7.05, 0.48 6.61, 0.1 5.89 C-0.29 5.16, -0.4 3.84, -0.2 3.03 C0 2.23, 0.51 1.59, 1.3 1.05 C2.09 0.52, 3.96 -0.06, 4.53 -0.18 C5.11 -0.29, 4.83 0.29, 4.75 0.35 M4.13 -0.13 C4.87 -0.19, 5.51 0.17, 6.21 0.7 C6.9 1.23, 8.16 2.21, 8.29 3.05 C8.41 3.9, 7.39 4.91, 6.95 5.75 C6.5 6.58, 6.28 7.8, 5.62 8.07 C4.97 8.34, 3.92 7.64, 3 7.36 C2.09 7.07, 0.58 7.05, 0.13 6.33 C-0.32 5.62, 0.12 4.03, 0.29 3.08 C0.46 2.12, 0.51 1.07, 1.15 0.59 C1.79 0.11, 3.71 0.28, 4.13 0.2 C4.56 0.12, 3.67 0.04, 3.72 0.1" stroke="#146b4c" stroke-width="1" fill="none"/></g><g transform="translate(177.5 452) rotate(0 38.5 6.25)"><text x="0" y="8.9501953125" font-family="Helvetica, Segoe UI Emoji" font-size="10px" fill="#5b6b82" text-anchor="start" style="white-space: pre;" direction="ltr" dominant-baseline="alphabetic">code and comms</text></g><g stroke-linecap="round" transform="translate(275.5 454) rotate(0 4 4)"><path d="M3.56 -0.14 C4.34 -0.38, 5.48 -0.24, 6.16 0.28 C6.84 0.79, 7.34 2.14, 7.64 2.96 C7.94 3.79, 8.2 4.48, 7.96 5.22 C7.73 5.96, 7.08 6.98, 6.24 7.38 C5.41 7.79, 3.83 7.76, 2.94 7.63 C2.04 7.5, 1.33 7.26, 0.88 6.61 C0.42 5.96, 0.13 4.54, 0.19 3.71 C0.26 2.88, 0.73 2.24, 1.26 1.61 C1.79 0.98, 2.98 0.13, 3.37 -0.08 C3.77 -0.3, 3.64 0.23, 3.62 0.33 M4.36 -0.36 C5.25 -0.27, 6.34 0.82, 6.88 1.5 C7.43 2.18, 7.56 2.88, 7.63 3.71 C7.71 4.55, 7.73 5.86, 7.31 6.51 C6.89 7.17, 6.02 7.37, 5.13 7.63 C4.24 7.89, 2.79 8.39, 1.96 8.07 C1.13 7.75, 0.44 6.48, 0.14 5.72 C-0.17 4.96, -0.08 4.25, 0.13 3.5 C0.34 2.74, 0.65 1.76, 1.4 1.18 C2.14 0.6, 4.05 0.15, 4.6 0.03 C5.16 -0.09, 4.7 0.45, 4.71 0.46" stroke="none" stroke-width="0" fill="#fbf1e4"/><path d="M3.71 0.31 C4.54 0.15, 5.86 0.14, 6.61 0.61 C7.36 1.08, 8.1 2.23, 8.23 3.14 C8.36 4.05, 7.87 5.34, 7.4 6.06 C6.93 6.78, 6.18 7.12, 5.41 7.44 C4.63 7.77, 3.51 8.29, 2.72 8.02 C1.94 7.74, 1.19 6.53, 0.71 5.79 C0.22 5.05, -0.28 4.41, -0.18 3.57 C-0.08 2.74, 0.61 1.42, 1.29 0.79 C1.96 0.16, 3.39 -0.09, 3.86 -0.23 C4.34 -0.36, 4.07 -0.12, 4.14 -0.04 M4.66 0.16 C5.5 0.23, 6.3 0.89, 6.78 1.44 C7.27 2, 7.57 2.58, 7.59 3.48 C7.6 4.38, 7.29 6.16, 6.88 6.84 C6.48 7.52, 5.86 7.38, 5.15 7.53 C4.43 7.68, 3.45 8.1, 2.59 7.75 C1.73 7.4, 0.37 6.32, -0.02 5.45 C-0.4 4.57, 0.03 3.32, 0.3 2.48 C0.57 1.63, 0.94 0.79, 1.61 0.38 C2.28 -0.04, 3.87 0.04, 4.33 -0.01 C4.8 -0.07, 4.32 -0.07, 4.41 0.04" stroke="#96540f" stroke-width="1" fill="none"/></g><g transform="translate(290.5 452) rotate(0 52.25 6.25)"><text x="0" y="8.9501953125" font-family="Helvetica, Segoe UI Emoji" font-size="10px" fill="#5b6b82" text-anchor="start" style="white-space: pre;" direction="ltr" dominant-baseline="alphabetic">where you kill slop</text></g><g stroke-linecap="round" transform="translate(416 454) rotate(0 4 4)"><path d="M4.16 -0.06 C4.89 -0.02, 5.91 0.63, 6.58 1.22 C7.25 1.81, 8.03 2.61, 8.19 3.47 C8.35 4.32, 8.08 5.6, 7.54 6.35 C7 7.1, 5.84 7.71, 4.92 7.96 C4 8.21, 2.74 8.2, 2.02 7.85 C1.3 7.5, 0.97 6.63, 0.61 5.86 C0.25 5.09, -0.32 4.1, -0.14 3.22 C0.03 2.34, 0.87 1.14, 1.68 0.59 C2.5 0.05, 4.29 0.03, 4.75 -0.04 C5.21 -0.1, 4.54 0.15, 4.46 0.19 M4.85 -0.16 C5.72 -0.18, 6.88 0.11, 7.32 0.74 C7.77 1.38, 7.47 2.65, 7.53 3.64 C7.6 4.63, 8.13 5.93, 7.72 6.7 C7.31 7.46, 5.98 8.01, 5.07 8.23 C4.16 8.45, 2.99 8.48, 2.27 8.02 C1.54 7.55, 1.15 6.24, 0.73 5.45 C0.31 4.66, -0.43 4.03, -0.27 3.26 C-0.11 2.49, 0.84 1.3, 1.69 0.83 C2.54 0.37, 4.31 0.52, 4.84 0.46 C5.36 0.4, 4.84 0.52, 4.83 0.46" stroke="none" stroke-width="0" fill="#eff3f9"/><path d="M3.81 0.18 C4.69 0.14, 5.86 0.56, 6.58 1.07 C7.3 1.58, 7.98 2.4, 8.14 3.23 C8.3 4.06, 7.97 5.3, 7.55 6.07 C7.14 6.83, 6.44 7.5, 5.65 7.84 C4.86 8.17, 3.68 8.3, 2.81 8.07 C1.94 7.83, 0.87 7.23, 0.42 6.45 C-0.04 5.66, -0.03 4.21, 0.07 3.35 C0.17 2.49, 0.37 1.82, 0.99 1.28 C1.61 0.74, 3.32 0.26, 3.77 0.11 C4.23 -0.05, 3.75 0.33, 3.72 0.33 M3.74 -0.15 C4.59 -0.2, 5.66 0.56, 6.39 1.06 C7.12 1.56, 7.88 1.98, 8.13 2.83 C8.37 3.68, 8.33 5.27, 7.86 6.16 C7.39 7.06, 6.18 7.96, 5.31 8.2 C4.43 8.44, 3.39 8.01, 2.61 7.59 C1.84 7.17, 1.06 6.39, 0.64 5.68 C0.22 4.97, -0.09 4.05, 0.09 3.31 C0.27 2.56, 1.08 1.73, 1.74 1.22 C2.4 0.72, 3.74 0.5, 4.03 0.29 C4.33 0.08, 3.51 -0.15, 3.5 -0.05" stroke="#c6d2e2" stroke-width="1" fill="none"/></g><g transform="translate(431 452) rotate(0 46.75 6.25)"><text x="0" y="8.9501953125" font-family="Helvetica, Segoe UI Emoji" font-size="10px" fill="#5b6b82" text-anchor="start" style="white-space: pre;" direction="ltr" dominant-baseline="alphabetic">savepoint on disk</text></g></svg>